<svg width="103" height="88" viewBox="0 0 103 88" fill="none" xmlns="http://www.w3.org/2000/svg">
<path d="M27.9267 17.7467C34.0964 20.7337 40.091 23.6362 46.0855 26.5387C46.1468 26.4718 46.2088 26.4049 46.2708 26.338C42.6364 23.7861 39.0027 21.2342 35.3032 18.636C36.6139 17.9775 37.8688 17.3471 39.2523 16.6522C34.5739 14.297 30.0419 12.0155 25.5099 9.73401L25.3472 9.90771C27.8058 12.0002 30.26 14.0885 32.7098 16.1725C31.2332 16.6585 29.6582 17.177 27.9267 17.7467Z" fill="white"/>
<path d="M68.147 18.789C64.3749 21.181 60.7244 23.7681 57.2097 26.54C63.2717 23.6927 69.3337 20.8455 75.5089 17.9448C73.7734 17.3564 72.1977 16.8222 70.4863 16.2421C73.0588 14.1626 75.5143 12.1769 77.9706 10.1912L77.8543 10.0575C73.3355 12.266 68.816 14.4743 64.198 16.7311C65.5807 17.452 66.8224 18.0989 68.147 18.789Z" fill="white"/>
<path d="M53.9442 25.292C57.8267 19.8578 61.7091 14.4237 65.6745 8.87406C63.7011 8.96739 61.9199 9.05152 60.0109 9.14169C61.2727 6.42663 62.4648 3.85926 63.6577 1.29199C60.4775 4.71954 57.5204 8.35655 54.8054 12.1796C56.8261 12.0134 58.6064 11.867 60.5852 11.7043C58.2592 16.3404 56.0292 20.7855 53.7993 25.2307L53.9442 25.292Z" fill="white"/>
<path d="M49.2882 25.217L49.4494 25.1498C47.3033 20.7076 45.1578 16.2656 42.9286 11.6505C44.9337 11.8466 46.7397 12.0232 48.7069 12.2154C46.0603 8.3529 43.161 4.678 40.029 1.21594C41.1815 3.80269 42.3341 6.38961 43.5432 9.10201C41.6133 8.99348 39.853 8.89433 37.8928 8.78396C41.7473 14.3426 45.5182 19.7797 49.2882 25.217Z" fill="white"/>
<path d="M75.3903 70.2533L57.2321 61.4613C57.1701 61.5282 57.1089 61.5951 57.0469 61.662C60.6805 64.2139 64.3141 66.7658 68.0137 69.364C66.703 70.0225 65.4481 70.653 64.0653 71.3478C68.743 73.703 73.275 75.9845 77.8069 78.266L77.9704 78.0923C75.511 75.9998 73.0568 73.9115 70.6078 71.8275C72.0845 71.3414 73.6595 70.823 75.3903 70.2533Z" fill="white"/>
<path d="M35.1707 69.211C38.9428 66.819 42.5933 64.2319 46.108 61.46C40.046 64.3073 33.984 67.1545 27.8081 70.0553C29.5435 70.6436 31.1201 71.1778 32.8307 71.7579C30.2589 73.8374 27.8027 75.8231 25.3472 77.8088L25.4627 77.9425C29.9822 75.734 34.501 73.5257 39.1198 71.2689C37.7362 70.548 36.4945 69.9011 35.1707 69.211Z" fill="white"/>
<path d="M49.3736 62.708C45.4903 68.1422 41.6079 73.5763 37.6433 79.1259C39.6167 79.0326 41.3971 78.9485 43.3061 78.8583C42.0451 81.5734 40.8522 84.1408 39.6601 86.708C42.8398 83.2801 45.7969 79.6431 48.5124 75.8204C46.4917 75.9866 44.7114 76.133 42.7326 76.2957C45.0578 71.6596 47.2878 67.2145 49.5177 62.7693L49.3736 62.708Z" fill="white"/>
<path d="M54.0286 62.7831L53.8682 62.8503C56.0136 67.2924 58.1599 71.7345 60.389 76.3495C58.3839 76.1535 56.5779 75.9769 54.6107 75.7846C57.2571 79.6474 60.1564 83.3223 63.2886 86.7841C62.1361 84.1974 60.9827 81.6106 59.7744 78.8981C61.7044 79.0067 63.4646 79.1058 65.4248 79.2161C61.5703 73.6575 57.7994 68.2203 54.0286 62.7831Z" fill="white"/>
<path d="M25.5355 57.2635C25.4781 56.7681 25.4293 56.3473 25.3898 56.0075C26.4346 57.3566 27.553 58.6444 28.7397 59.8646C29.9463 61.0833 31.4909 61.8921 33.1631 62.1808C34.8354 62.4696 36.554 62.2243 38.085 61.4784C39.6319 60.7799 41.1409 59.9967 42.6054 59.1322C43.9454 58.4247 45.1055 57.4073 45.9935 56.1609C46.8816 54.9145 47.4731 53.4734 47.721 51.9522C47.8202 51.3854 48.0047 50.8344 48.1085 50.2683C49.3019 44.2553 48.3861 38.0046 45.522 32.6134C44.25 30.5624 42.3471 29.0023 40.1129 28.1788C37.8786 27.3553 35.44 27.3152 33.1811 28.0648C33.908 28.991 34.363 30.1091 34.4934 31.2892C34.6237 32.4694 34.424 33.6631 33.9174 34.7318C34.3731 34.7119 34.8166 34.5747 35.2067 34.3329C35.5968 34.0911 35.9209 33.7525 36.1489 33.3485C36.7461 32.4905 37.5868 31.8411 38.557 31.4884C38.1602 32.0231 37.7757 32.5416 37.2572 33.2407C38.624 33.0339 40.0196 33.2819 41.2381 33.9481C41.1544 33.9312 41.0737 33.9359 40.99 33.9223C40.5249 34.0147 31.413 35.8831 26.1804 41.3856C26.1804 41.3856 24.2054 42.383 23.952 51.9871L23.9403 51.9477C23.9837 52.1609 24.0303 52.3737 24.0721 52.5871C22.0646 48.2576 21.15 43.8052 22.7831 39.1822C23.7365 38.9652 24.6742 38.6817 25.5897 38.3336C26.0943 38.1105 26.4408 37.515 26.8586 37.0874C26.4613 36.6351 26.0232 36.222 25.5502 35.8536C25.051 35.5866 24.524 35.3779 23.9791 35.2313C22.3108 34.7738 20.7593 33.9518 19.4317 32.8219C19.011 32.3443 18.6275 31.8339 18.2845 31.2953L18.3837 31.2609L20.6245 32.3705V31.4241C20.6245 31.4241 27.4469 36.2389 31.3309 35.3408C35.0862 34.4726 32.309 27.9798 32.1207 27.5486C30.9285 26.2953 29.4956 25.308 27.9121 24.6486C26.3285 23.9893 24.6287 23.6723 22.9196 23.7176C20.2284 23.6785 15.7709 28.2028 15.4811 30.9369C15.4768 31.8056 15.2759 32.6614 14.894 33.4374C14.512 34.2133 13.9595 34.8883 13.2798 35.4092C16.2755 40.0521 16.9204 45.2255 16.9266 50.5573C16.8368 50.4394 16.7756 50.3014 16.7483 50.1546C16.7483 50.1546 13.9711 42.5943 13.127 39.5203C12.331 36.6233 8.10676 36.9419 7.62232 36.9883C6.42481 37.38 5.23116 37.7886 4.05148 38.2318C3.5998 38.3156 3.17067 38.4965 2.79245 38.7626C2.41423 39.0287 2.09553 39.3738 1.85743 39.7752C1.61933 40.1765 1.46723 40.625 1.41121 41.091C1.35519 41.5569 1.39651 42.0297 1.53244 42.4781C1.92539 45.7013 2.24009 48.9432 2.83303 52.1295C3.34792 54.5541 4.00668 56.9443 4.80565 59.287C4.96291 59.7864 5.25694 60.2293 5.65287 60.563C6.04881 60.8967 6.53003 61.1073 7.03945 61.1697C7.88061 61.3511 8.74695 61.3751 9.59648 61.2406C11.4691 60.805 13.3014 60.1887 15.1438 59.6229C15.5915 59.4994 16.0006 59.26 16.3317 58.928C16.6628 58.5959 16.9047 58.1824 17.0343 57.727C17.1379 57.4868 17.2668 57.2589 17.4187 57.0473L17.528 57.1164C17.4598 57.5506 17.3924 57.9849 17.304 58.5462C19.9851 57.2216 22.763 57.3848 25.5355 57.2635Z" fill="white"/>
<path d="M98.9484 38.2317C97.7687 37.7885 96.5751 37.38 95.3776 36.9882C94.8932 36.9419 90.6689 36.6232 89.8729 39.5203C89.0288 42.5943 86.2517 50.1547 86.2517 50.1547C86.2243 50.3015 86.1632 50.4396 86.0734 50.5574C86.0796 45.2256 86.7245 40.0521 89.7202 35.4094C89.0404 34.8884 88.4879 34.2135 88.106 33.4375C87.7241 32.6616 87.5232 31.8057 87.5189 30.937C87.2291 28.2029 82.7715 23.6786 80.0804 23.7178C78.3713 23.6725 76.6715 23.9894 75.0879 24.6488C73.5044 25.3081 72.0715 26.2955 70.8793 27.5488C70.691 27.9799 67.9138 34.4727 71.6691 35.3409C75.5531 36.239 82.3755 31.4242 82.3755 31.4242V32.3706L84.6163 31.261L84.7155 31.2954C84.3725 31.834 83.9889 32.3444 83.5683 32.822C82.2407 33.9519 80.6892 34.7739 79.0209 35.2314C78.476 35.378 77.949 35.5868 77.4498 35.8538C76.9768 36.2221 76.5387 36.6352 76.1414 37.0875C76.5592 37.5151 76.9057 38.1106 77.4102 38.3338C78.3257 38.6818 79.2635 38.9653 80.2169 39.1823C81.85 43.8053 80.9354 48.2578 78.9279 52.5873C78.9698 52.3738 79.0163 52.161 79.0596 51.9478L79.048 51.9871C78.7946 42.383 76.8196 41.3856 76.8196 41.3856C71.587 35.8831 62.475 34.0147 62.01 33.9223C61.9262 33.9359 61.8456 33.9311 61.7619 33.9481C62.9804 33.2819 64.376 33.0339 65.7428 33.2406C65.2243 32.5416 64.8398 32.0231 64.443 31.4884C65.4133 31.8411 66.254 32.4905 66.8512 33.3485C67.0792 33.7526 67.4033 34.0912 67.7934 34.333C68.1835 34.5748 68.6269 34.712 69.0827 34.7318C68.5761 33.6632 68.3764 32.4694 68.5067 31.2893C68.637 30.1092 69.0921 28.9911 69.819 28.0649C67.56 27.3152 65.1214 27.3553 62.8871 28.1788C60.6529 29.0022 58.7499 30.5623 57.4779 32.6134C54.6139 38.0046 53.6981 44.2553 54.8914 50.2682C54.9953 50.8344 55.1798 51.3854 55.279 51.9522C55.5269 53.4734 56.1184 54.9145 57.0065 56.1609C57.8945 57.4073 59.0546 58.4247 60.3946 59.1322C61.8591 59.9967 63.3681 60.7799 64.9149 61.4784C66.446 62.2243 68.1646 62.4696 69.8368 62.1808C71.509 61.8921 73.0536 61.0833 74.2602 59.8647C75.4469 58.6444 76.5653 57.3567 77.6102 56.0075C77.5706 56.3473 77.5218 56.7681 77.4644 57.2635C80.2369 57.3848 83.0149 57.2216 85.6959 58.5462C85.6076 57.9848 85.5401 57.5506 85.4719 57.1164L85.5812 57.0473C85.7331 57.2589 85.862 57.4869 85.9657 57.727C86.0952 58.1824 86.3372 58.5959 86.6683 58.928C86.9994 59.26 87.4084 59.4993 87.8561 59.6229C89.6985 60.1887 91.5308 60.8049 93.4034 61.2405C94.253 61.3751 95.1193 61.3511 95.9605 61.1697C96.4699 61.1072 96.9511 60.8966 97.3471 60.5629C97.743 60.2292 98.037 59.7863 98.1943 59.2869C98.9933 56.9442 99.652 54.554 100.167 52.1294C100.76 48.9432 101.075 45.7012 101.467 42.478C101.603 42.0296 101.645 41.5568 101.589 41.0909C101.533 40.6249 101.381 40.1765 101.142 39.7751C100.904 39.3737 100.586 39.0286 100.207 38.7626C99.8292 38.4965 99.4001 38.3156 98.9484 38.2317Z" fill="white"/>
</svg>
