<svg width="170" height="36" viewBox="0 0 170 36" fill="none" xmlns="http://www.w3.org/2000/svg">
<g clip-path="url(#clip0_9_176)">
<path d="M9.02449 0.743273H0.63147C4.72573 12.2893 8.81999 23.8353 12.9143 35.3813C16.331 35.3906 19.7478 35.4 23.1646 35.4094C25.2841 29.4367 27.4036 23.4641 29.5231 17.4915C29.1289 17.0303 28.8973 16.4467 28.8653 15.8345C28.0522 14.8328 27.2391 13.8311 26.4261 12.8295C26.0095 13.045 25.6374 13.3406 25.3298 13.7001C25.0461 14.0343 24.8943 14.3392 24.7816 14.5707C24.278 15.6058 24.0261 16.1233 23.795 16.7894C23.4882 17.6731 23.0014 18.9409 22.1676 20.8702C22.0686 20.8566 21.9113 20.8366 21.7173 20.8181C21.1723 20.7662 21.0787 20.7975 20.9386 20.7064C20.7022 20.5527 20.5634 20.2006 20.6519 19.9596C20.7141 19.7902 20.8635 19.7446 21.0542 19.6259C21.6319 19.2665 21.8883 18.6727 21.9861 18.4464C22.0911 18.2033 22.1161 17.8887 22.1663 17.2597C22.2528 16.1738 22.1367 16.1309 22.2548 15.6079C22.3399 15.2309 22.4991 14.8988 22.8174 14.2346C23.035 13.7806 23.0724 13.7654 23.3041 13.2759C23.5476 12.7615 23.6824 12.4767 23.8099 12.071C23.8356 11.989 23.9345 11.6126 24.1323 10.8597C24.2238 10.511 24.2803 10.2926 24.4736 10.0953C24.6139 9.95226 24.7114 9.93734 24.7454 9.81034C24.8068 9.58094 24.5364 9.45043 24.4989 9.10427C24.4789 8.9193 24.5373 8.78328 24.6443 8.53424C24.7934 8.18715 24.9068 8.13033 25.1374 7.76339C25.3585 7.41147 25.4762 7.11058 25.6051 6.78092C25.7471 6.41768 25.8181 6.23607 25.8415 6.03802C25.8973 5.56484 25.7241 5.45825 25.7627 5.02057C25.7931 4.67557 25.9275 4.43794 26.1094 4.11617C26.3302 3.72581 26.5231 3.38464 26.929 3.17948C27.3074 2.98816 27.6683 3.01762 27.8431 3.03412C28.2813 3.07553 28.5763 3.26098 28.8833 3.45403C29.2482 3.68347 29.5282 3.85956 29.6713 4.21308C29.758 4.42718 29.7549 4.60875 29.7501 4.89137C29.7432 5.26002 29.6794 5.62523 29.561 5.97342C29.8465 5.90569 30.1361 5.85714 30.4278 5.82807C30.8597 5.78519 31.1938 5.81025 31.862 5.86037C32.1098 5.87896 32.3685 5.90415 32.6028 6.08647C32.6783 6.14528 32.8256 6.25991 32.8234 6.40947C32.8212 6.55819 32.6735 6.58772 32.5397 6.82937C32.5167 6.87102 32.4972 6.91325 32.3979 7.29772C32.268 7.80046 32.2874 7.78192 32.256 7.84682C32.1861 7.99152 32.1248 8.01087 31.6887 8.36362C31.1877 8.7688 31.1309 8.85466 31.0898 8.94502C31.0038 9.13373 31.0485 9.20552 30.9322 9.38106C30.7955 9.58735 30.6624 9.59604 30.6012 9.75251C30.5304 9.93321 30.6261 10.1305 30.6957 10.2693C30.9715 10.819 31.5477 11.1729 31.8147 11.3191L35.55 0.692383C32.1457 0.697277 28.7415 0.702175 25.3372 0.707075C22.6369 8.35188 19.9365 15.9967 17.2362 23.6415C14.499 16.0087 11.7617 8.37601 9.02449 0.743273Z" fill="white"/>
<path d="M30.3227 7.69505C30.2208 7.58865 29.6916 7.95414 29.3732 8.18896C29.4905 8.38818 29.6077 8.58739 29.725 8.7866C29.9531 8.48386 30.438 7.81542 30.3227 7.69505Z" fill="white"/>
<path d="M36.9503 0.596873C35.5911 4.39157 34.2319 8.18626 32.8727 11.981C33.2406 12.005 33.6099 11.9753 33.9697 11.8928C34.8751 11.683 35.0966 11.2688 36.1207 10.6585C36.1207 10.6585 37.3367 9.93377 39.2612 9.66658C39.5322 9.62896 39.9195 9.58958 40.2507 9.82088C40.6804 10.121 40.7519 10.6927 40.7669 10.8127C40.8116 11.1698 40.7276 11.4191 40.5518 11.9589C40.0302 13.5608 40.148 13.2744 40.0355 13.5679C39.9534 13.7825 39.3276 15.1763 39.0891 15.7501C38.8259 16.3832 38.6944 16.6998 38.5944 17.1828C38.5308 17.4897 38.5465 17.5401 38.4205 18.4806C38.3481 19.0211 38.2927 19.3793 38.2251 19.7509C38.1414 20.2115 38.0492 20.6376 37.7855 21.0946C37.6728 21.2898 37.5482 21.5014 37.4328 21.4809C37.3163 21.4602 37.2591 21.1051 37.1495 20.3959C36.9831 19.3198 36.9628 19.1842 36.8219 19.0012C36.6635 18.7953 36.5665 18.8074 36.2373 18.4193C36.0105 18.1519 35.922 17.9874 35.9083 17.791C35.9047 17.7395 35.8929 17.5689 35.9767 17.4152C36.1595 17.0802 36.5818 17.2201 36.9401 16.9942C37.4624 16.665 37.5004 15.7777 37.5404 14.8464C37.5568 14.4637 37.5424 14.0804 37.4974 13.7002C37.2536 13.9133 37.0098 14.1263 36.766 14.3394C36.7383 15.3359 36.3645 15.7628 36.1852 15.9264C36.0092 16.087 35.6783 16.2414 35.0237 16.5436C34.6845 16.7002 34.402 16.822 34.2111 16.9026C34.2139 17.1305 34.2168 17.3583 34.2196 17.5861C34.1638 17.7014 34.0918 17.8077 34.0058 17.9016C33.8508 18.0688 33.6565 18.1925 33.4415 18.2608C33.4922 18.6205 33.5123 18.9841 33.5013 19.3474C33.4859 19.8577 33.4204 19.983 33.3303 20.6617C33.1919 21.7045 33.2935 21.8085 33.1336 22.7559C33.0572 23.2087 32.9705 23.561 32.9199 23.7548C32.8006 24.2106 32.7143 24.4242 32.6462 24.6486C32.3625 25.5838 32.6545 25.8535 32.4837 27.0407C32.365 27.8663 32.221 27.7552 32.1331 28.5566C32.0884 28.9643 32.0998 29.229 32.1331 30.3354C32.1537 31.0187 32.1685 31.5516 32.1759 31.825C32.2234 31.8147 32.3272 31.7999 32.3982 31.86C32.5176 31.9611 32.4579 32.2007 32.3982 32.3244C32.2956 32.5373 32.0899 32.6219 32.022 32.6486C31.7031 32.7743 31.3969 32.6595 31.0643 32.5347C30.7465 32.4156 30.5876 32.356 30.517 32.2193C30.3941 31.9813 30.5783 31.7422 30.7479 31.159C30.7479 31.159 30.8509 30.8046 30.9274 30.2215C30.9938 29.7162 30.9274 29.4379 30.7564 28.3463C30.7564 28.3463 30.6325 27.5549 30.4913 26.4624C30.3553 25.4094 30.3421 25.1138 30.4229 24.7275C30.5123 24.2998 30.6089 24.2771 30.7308 23.7285C30.7913 23.456 30.8998 22.9506 30.8505 22.3266C30.82 21.9413 30.6987 21.5446 30.4571 20.7669C30.3342 20.3712 30.2228 20.0459 30.1428 19.82C28.2946 24.957 26.4463 30.094 24.598 35.231C27.9866 35.2371 31.3751 35.2432 34.7636 35.2493L41.5084 16.4644C41.908 16.6267 42.3077 16.789 42.7074 16.9514C41.5827 20.0971 40.458 23.2429 39.3334 26.3886C41.8798 26.4087 44.4262 26.4288 46.9726 26.4489C50.0421 17.8246 53.1116 9.20041 56.1811 0.576172C49.7708 0.58307 43.3605 0.58997 36.9503 0.596873ZM43.8284 13.9705C43.3934 13.7955 42.9584 13.6205 42.5234 13.4454C43.5561 10.5823 44.5889 7.71919 45.6217 4.85605C46.1021 4.86153 46.5824 4.867 47.0628 4.87247C45.9846 7.90514 44.9065 10.9378 43.8284 13.9705Z" fill="white"/>
<path d="M57.2692 0.577911C54.2127 9.21561 51.1561 17.8533 48.0995 26.491C50.6333 26.5191 53.1671 26.5471 55.7009 26.5752C57.4267 21.6841 59.1524 16.793 60.8782 11.9019C61.5356 16.7579 62.193 21.6139 62.8504 26.4699C65.3911 26.491 67.9318 26.5121 70.4724 26.5331C73.5288 17.8814 76.5852 9.22964 79.6416 0.577911H72.0749L66.8566 15.0387L64.945 0.577911H57.2692Z" fill="white"/>
<path d="M98.2629 0.577911H80.8066L71.644 26.4374C78.4487 26.4657 85.2534 26.4939 92.0581 26.5222C92.5958 25.081 93.1336 23.6398 93.6713 22.1986H90.5689C93.1336 14.9917 95.6983 7.78482 98.2629 0.577911ZM82.9941 22.2621L80.6732 22.236C82.7277 16.4732 84.7823 10.7103 86.8368 4.9475C87.6028 4.95248 88.3688 4.95746 89.1348 4.96245C87.0879 10.729 85.041 16.4956 82.9941 22.2621Z" fill="white"/>
<path d="M102.424 0.577911C99.322 9.22591 96.2201 17.8739 93.1183 26.5219L111.705 26.469C114.794 17.8386 117.883 9.20827 120.972 0.577911H113.321C110.76 7.78726 108.199 14.9966 105.638 22.206L102.296 22.2019C104.861 14.9939 107.425 7.78589 109.99 0.577911H102.424Z" fill="white"/>
<path d="M122.137 0.577911C119.071 9.21837 116.006 17.8588 112.94 26.4993C115.441 26.5387 117.943 26.5782 120.444 26.6176C123.548 17.9377 126.652 9.25781 129.756 0.577911H122.137Z" fill="white"/>
<path d="M139.281 8.24032L145.938 10.5918C147.165 7.25386 148.393 3.91589 149.62 0.577911H131.009C129.538 4.64804 128.067 8.71817 126.596 12.7883C129.799 14.1579 133.001 15.5274 136.204 16.897C135.305 19.4035 134.405 21.9101 133.506 24.4167L130.177 24.365C130.835 22.5385 131.492 20.712 132.15 18.8856C129.866 18.1224 127.581 17.3592 125.297 16.596C124.141 19.9092 122.986 23.2224 121.83 26.5356H140.138C141.348 23.2624 142.559 19.9893 143.769 16.7161C140.6 15.3293 137.431 13.9425 134.262 12.5557C135.453 9.29718 136.643 6.03861 137.833 2.78005C138.935 2.76559 140.037 2.75113 141.139 2.73666L139.281 8.24032Z" fill="white"/>
<path d="M150.759 0.577911C147.681 9.21711 144.603 17.8563 141.525 26.4955L149.206 26.5126C150.5 22.8265 151.794 19.1404 153.088 15.4543C154.059 15.9449 155.029 16.4355 156 16.9261C153.713 23.092 151.426 29.2579 149.14 35.4238H156.815C160.999 23.8085 165.184 12.1932 169.369 0.577911H161.74C160.189 5.0196 158.638 9.46128 157.087 13.903C156.09 13.5052 155.094 13.1074 154.098 12.7096C155.54 8.66572 156.982 4.62182 158.425 0.577912L150.759 0.577911Z" fill="white"/>
<path d="M43.0876 34.0659L43.0811 31.2555L41.7359 33.5707H41.2592L39.9206 31.3157V34.0659H38.928V29.3819H39.803L41.5139 32.2926L43.1986 29.3819H44.0672L44.0802 34.0659H43.0876Z" fill="white"/>
<path d="M47.1584 32.0049V29.3819H48.2163V31.9647C48.2163 32.8547 48.595 33.2227 49.235 33.2227C49.8815 33.2227 50.2537 32.8547 50.2537 31.9647V29.3819H51.2985V32.0049C51.2985 33.3834 50.5279 34.1462 49.2284 34.1462C47.929 34.1462 47.1584 33.3834 47.1584 32.0049Z" fill="white"/>
<path d="M57.1388 33.0621H55.0166L54.6117 34.0659H53.5277L55.5651 29.3819H56.6099L58.6538 34.0659H57.5437L57.1388 33.0621ZM56.8058 32.2391L56.081 30.4459L55.3561 32.2391H56.8058Z" fill="white"/>
<path d="M62.7882 32.4064V34.0659H61.7303V32.393L59.9607 29.3819H61.0838L62.305 31.4629L63.5261 29.3819H64.5644L62.7882 32.4064Z" fill="white"/>
<path d="M71.604 30.2652H70.1412V29.3819H74.1246V30.2652H72.6618V34.0659H71.604V30.2652Z" fill="white"/>
<path d="M80.9343 29.3819V34.0659H79.8764V32.1454H77.7998V34.0659H76.7419V29.3819H77.7998V31.2287H79.8764V29.3819H80.9343Z" fill="white"/>
<path d="M86.9155 33.0621H84.7932L84.3884 34.0659H83.3043L85.3418 29.3819H86.3866L88.4304 34.0659H87.3204L86.9155 33.0621ZM86.5824 32.2391L85.8576 30.4459L85.1328 32.2391H86.5824Z" fill="white"/>
<path d="M91.0681 29.3819H92.126V34.0659H91.0681V29.3819Z" fill="white"/>
<path d="M115.209 29.3819H116.267V34.0659H115.209V29.3819Z" fill="white"/>
<path d="M110.327 30.2517V31.4897H112.443V32.3595H110.327V34.0659H109.27V29.3819H112.724V30.2517H110.327Z" fill="white"/>
<path d="M120.474 30.2652H119.011V29.3819H122.994V30.2652H121.531V34.0659H120.474V30.2652Z" fill="white"/>
<path d="M129.724 29.3819V34.0659H128.855L126.576 31.222V34.0659H125.532V29.3819H126.407L128.679 32.2257V29.3819H129.724Z" fill="white"/>
<path d="M136.222 33.196V34.0659H132.683V29.3819H136.138V30.2517H133.735V31.2689H135.857V32.112H133.735V33.196H136.222Z" fill="white"/>
<path d="M138.116 33.6211L138.517 32.7354C138.888 32.9805 139.451 33.1467 139.961 33.1467C140.516 33.1467 140.725 32.9964 140.725 32.7592C140.725 32.0633 138.216 32.775 138.216 31.0747C138.216 30.2681 138.926 29.6988 140.138 29.6988C140.709 29.6988 141.342 29.8332 141.736 30.0704L141.334 30.9482C140.97 30.7369 140.557 30.6278 140.138 30.6319C139.598 30.6319 139.366 30.8058 139.366 31.0273C139.366 31.7548 141.874 31.051 141.874 32.7275C141.874 33.5184 141.157 34.0798 139.914 34.0798C139.212 34.0798 138.502 33.8821 138.116 33.6211Z" fill="white"/>
<path d="M143.878 33.5727L144.279 32.6871C144.649 32.9322 145.213 33.0983 145.722 33.0983C146.278 33.0983 146.486 32.948 146.486 32.7108C146.486 32.0149 143.978 32.7266 143.978 31.0263C143.978 30.2197 144.688 29.6504 145.9 29.6504C146.471 29.6504 147.103 29.7848 147.497 30.0221L147.096 30.8999C146.731 30.6886 146.318 30.5795 145.9 30.5836C145.359 30.5836 145.128 30.7575 145.128 30.9789C145.128 31.7065 147.636 31.0027 147.636 32.6791C147.636 33.47 146.918 34.0314 145.676 34.0314C144.973 34.0314 144.263 33.8337 143.878 33.5727Z" fill="white"/>
<path d="M102.127 33.1094C102.333 32.783 102.477 32.4194 102.55 32.0381C102.583 31.8633 102.6 31.6859 102.603 31.5079L101.781 31.4959C101.799 31.8431 101.706 32.1866 101.515 32.4744C101.468 32.4315 100.508 31.5552 100.229 31.1405C100.169 31.0531 100.128 30.9531 100.11 30.8477C100.1 30.7835 100.062 30.5535 100.21 30.3817C100.278 30.3013 100.372 30.2488 100.475 30.2339C100.57 30.2246 100.666 30.247 100.747 30.2978C100.973 30.4217 101.046 30.6669 101.063 30.7331C101.348 30.6732 101.632 30.6133 101.917 30.5534C101.882 30.4266 101.754 30.0234 101.359 29.7387C100.984 29.4673 100.598 29.4709 100.424 29.4751C100.252 29.4792 99.8522 29.4889 99.512 29.7866C99.3477 29.9284 99.2243 30.1134 99.1549 30.3216C99.0856 30.5299 99.0729 30.7536 99.1183 30.9687C99.1584 31.1805 99.248 31.3792 99.3794 31.5478C99.2376 31.615 98.7643 31.8608 98.5766 32.3865C98.5253 32.5299 98.4991 32.6815 98.4994 32.8342C98.5033 33.2467 98.71 33.5423 98.7948 33.6485C99.1692 34.1177 99.7631 34.1503 100.007 34.1637C100.751 34.2047 101.299 33.8183 101.486 33.6722C101.603 33.7796 101.719 33.887 101.835 33.9944H103.124C102.792 33.6994 102.459 33.4044 102.127 33.1094ZM100.315 33.4289C100.243 33.4259 99.8797 33.411 99.6951 33.1214C99.5735 32.9305 99.595 32.7232 99.6055 32.6222C99.6294 32.4132 99.718 32.2175 99.8583 32.0638L100.95 33.1933C100.89 33.2467 100.654 33.4428 100.315 33.4289Z" fill="white"/>
</g>
<defs>
<clipPath id="clip0_9_176">
<rect width="170" height="36" fill="white"/>
</clipPath>
</defs>
</svg>
