<svg width="161" height="44" viewBox="0 0 161 44" fill="none" xmlns="http://www.w3.org/2000/svg">
<path d="M34.6161 4.70305C34.5585 4.16446 34.3869 3.64391 34.1128 3.17519C33.8386 2.70648 33.4679 2.30009 33.0247 1.98243C32.5816 1.66476 32.0758 1.44291 31.5404 1.3313C31.005 1.21969 30.4518 1.22081 29.9169 1.33458C27.8558 1.51346 25.7829 1.51648 23.7213 1.34362C22.8854 1.19092 22.0224 1.36838 21.3171 1.83797C20.6118 2.30756 20.1204 3.03192 19.9482 3.85582C19.0694 6.63819 18.4065 9.48288 17.9652 12.3651C16.7419 20.9783 17.1754 29.7428 19.2428 38.1966C20.3833 42.3595 20.9214 42.6377 25.1597 42.6393C26.9306 42.5586 28.7045 42.569 30.4743 42.6704C30.9581 42.7756 31.4591 42.7771 31.9436 42.6747C32.4281 42.5723 32.8848 42.3685 33.2831 42.0768C33.6814 41.7852 34.0119 41.4125 34.2526 40.9839C34.4932 40.5552 34.6384 40.0806 34.6783 39.5918C35.3836 36.1672 35.9603 32.7154 36.5241 29.2644C36.5948 28.8344 36.2519 28.3381 36.0996 27.8729C35.1448 30.4061 34.3515 32.9961 33.7243 35.6276C33.1301 36.7577 32.3473 37.7803 31.409 38.6523C30.693 37.6756 29.6018 36.795 29.3167 35.7075C26.8565 26.6241 26.8868 17.0558 29.4045 7.98796C29.9656 6.7563 30.6769 5.59727 31.5226 4.53674C34.205 8.68957 35.5023 13.5713 35.2314 18.493C33.2226 18.5973 31.5076 18.6864 29.7476 18.7776V25.1984H46.8207V18.4939H37.2852C36.3612 13.6505 35.6001 9.15245 34.6161 4.70305Z" fill="white"/>
<path d="M140.546 4.02703C140.351 3.16766 139.836 2.41257 139.104 1.91255C138.372 1.41253 137.476 1.20437 136.595 1.32965C126.004 1.20823 125.683 1.41852 124.189 11.9273C123.878 14.108 123.702 16.3075 123.443 18.7054H115.146V25.1238H130.691V18.7847C128.759 18.6664 127.029 18.5606 124.954 18.4332C125.754 13.7152 125.353 8.97081 129.126 4.37214C130.125 5.87379 130.892 7.51456 131.403 9.2403C131.96 15.5197 132.447 21.8237 132.485 28.1216C132.29 31.0332 131.709 33.9068 130.759 36.6692C130.551 37.4427 129.522 37.9999 128.871 38.6564C128.243 37.9755 127.314 37.3938 127.044 36.5946C126.397 34.6681 126.058 32.6398 125.593 30.6529C125.374 29.7131 125.155 28.7733 124.935 27.8335L123.719 28.0781C124.034 30.6426 124.21 33.2338 124.695 35.7665C125.996 42.5471 126.163 42.6318 133.019 42.6398C133.414 42.6403 133.808 42.64 134.2 42.64C139.815 42.6395 140.4 42.2318 141.612 36.6792C143.292 28.547 143.556 20.1903 142.392 11.9701C141.953 9.28515 141.337 6.63173 140.546 4.02703Z" fill="white"/>
<path d="M8.87108 18.6366C8.51304 18.6366 8.12715 18.6323 7.75844 18.6287V18.595H1.86938V25.2953H2.00215V25.3715H9.01255C11.8081 33.9843 12.0632 34.2937 15.4483 33.7113V9.89734C9.79507 10.0999 10.7362 15.2966 8.87108 18.6366Z" fill="white"/>
<path d="M153.683 18.5949C153.54 18.5965 153.402 18.5917 153.259 18.5949H153.244C152.626 18.6079 152.013 18.6312 151.424 18.6312C148.412 9.80863 148.412 9.80863 144.971 10.1879V34.0876C150.652 33.8701 149.709 28.6629 151.496 25.3544H158.464V25.2952H159.131V18.5949H153.683Z" fill="white"/>
<path d="M78.799 19.8404L76.6621 21.9541L78.9758 24.2459L81.1127 22.1322L78.799 19.8404Z" fill="white"/>
<path d="M81.8912 21.3613L84.2066 19.0703L82.2171 17.1018H81.5654L79.5759 19.07L81.8912 21.3613Z" fill="white"/>
<path d="M86.1941 17.1018H83.7737L84.9849 18.3L86.1941 17.1018Z" fill="white"/>
<path d="M92.023 17.1018H89.8342L90.9297 18.1854L92.023 17.1018Z" fill="white"/>
<path d="M80.009 17.1018H77.5886L78.7977 18.2997L80.009 17.1018Z" fill="white"/>
<path d="M84.9849 19.8404L82.6694 22.1315L84.8047 24.2458L87.1201 21.9547L84.9849 19.8404Z" fill="white"/>
<path d="M87.8982 21.1844L90.1513 18.9557L88.2776 17.1018H87.7503L85.7629 19.0703L87.8982 21.1844Z" fill="white"/>
<path d="M66.6659 19.7259L64.415 21.9547L66.7304 24.2457L68.9813 22.0169L66.6659 19.7259Z" fill="white"/>
<path d="M67.7614 17.1018H65.5706L66.666 18.1854L67.7614 17.1018Z" fill="white"/>
<path d="M69.7594 21.2467L72.0747 18.9554L70.201 17.1018H69.3178L67.4441 18.9557L69.7594 21.2467Z" fill="white"/>
<path d="M73.9484 17.1018H71.7576L72.853 18.1851L73.9484 17.1018Z" fill="white"/>
<path d="M72.8527 19.7253L70.5383 22.0175L72.7915 24.2464L75.1058 21.9542L72.8527 19.7253Z" fill="white"/>
<path d="M104.271 17.1018H101.9L103.085 18.2745L104.271 17.1018Z" fill="white"/>
<path d="M111.028 20.5379V18.0771L109.784 19.3074L111.028 20.5379Z" fill="white"/>
<path d="M106.179 21.3361L108.228 19.3074L105.999 17.1018H105.827L103.863 19.0448L106.179 21.3361Z" fill="white"/>
<path d="M106.957 22.1064L109.128 24.2555L111.028 22.3754V22.0783L109.006 20.0778L106.957 22.1064Z" fill="white"/>
<path d="M110.458 17.1018H107.555L109.006 18.5371L110.458 17.1018Z" fill="white"/>
<path d="M51.8265 22.9971L50.4009 24.408V26.9353H51.9466L53.876 25.0257L51.8265 22.9971Z" fill="white"/>
<path d="M53.9982 19.3074L51.7686 17.1018H50.4009V20.0456L51.8265 21.4565L53.9982 19.3074Z" fill="white"/>
<path d="M63.6368 21.1844L65.8878 18.9557L64.0141 17.1018H63.4396L61.4758 19.0448L63.6368 21.1844Z" fill="white"/>
<path d="M98.2099 17.1018H96.019L97.1145 18.1854L98.2099 17.1018Z" fill="white"/>
<path d="M97.1154 19.7259L94.8008 22.0165L97.0523 24.2457L99.367 21.9551L97.1154 19.7259Z" fill="white"/>
<path d="M94.0231 21.2467L96.3363 18.9557L94.4647 17.1018H93.5815L91.7078 18.9557L94.0231 21.2467Z" fill="white"/>
<path d="M100.146 21.1844L102.307 19.0448L100.345 17.1018H99.7665L97.8928 18.9557L100.146 21.1844Z" fill="white"/>
<path d="M103.085 19.8151L100.924 21.9546L103.239 24.2458L105.4 22.1064L103.085 19.8151Z" fill="white"/>
<path d="M90.9292 19.7253L88.677 21.9552L90.9923 24.2465L93.2445 22.0166L90.9292 19.7253Z" fill="white"/>
<path d="M75.8823 21.1844L78.0197 19.0699L76.0302 17.1017H75.5029L73.6313 18.9553L75.8823 21.1844Z" fill="white"/>
<path d="M87.8983 22.7247L85.583 25.016L87.5231 26.9351H88.2735L90.2136 25.016L87.8983 22.7247Z" fill="white"/>
<path d="M83.645 26.9353H85.9668L84.8048 25.7865L83.645 26.9353Z" fill="white"/>
<path d="M94.0232 22.7872L91.77 25.0162L93.7102 26.9353H94.3362L96.2742 25.0159L94.0232 22.7872Z" fill="white"/>
<path d="M89.8298 26.9353H92.1516L90.9918 25.7865L89.8298 26.9353Z" fill="white"/>
<path d="M81.8913 22.9019L79.7539 25.0162L81.694 26.9353H82.0885L84.0265 25.0162L81.8913 22.9019Z" fill="white"/>
<path d="M60.6977 19.8151L58.3823 22.1063L60.5433 24.2458L62.8586 21.9546L60.6977 19.8151Z" fill="white"/>
<path d="M100.146 22.7247L97.8306 25.0157L99.7707 26.9351H100.521L102.461 25.016L100.146 22.7247Z" fill="white"/>
<path d="M107.977 26.9353H110.28L109.129 25.796L107.977 26.9353Z" fill="white"/>
<path d="M106.179 22.877L104.018 25.0165L105.956 26.9356H106.419L108.35 25.0261L106.179 22.877Z" fill="white"/>
<path d="M111.028 26.1356V23.916L109.907 25.0258L111.028 26.1356Z" fill="white"/>
<path d="M102.077 26.9353H104.401L103.239 25.7865L102.077 26.9353Z" fill="white"/>
<path d="M95.8904 26.9354H98.2143L97.0525 25.786L95.8904 26.9354Z" fill="white"/>
<path d="M75.8822 22.7247L73.5691 25.016L75.5071 26.9351H76.2574L78.1976 25.016L75.8822 22.7247Z" fill="white"/>
<path d="M77.8159 26.9353H80.1377L78.9757 25.7865L77.8159 26.9353Z" fill="white"/>
<path d="M53.5029 26.9353H55.8054L54.6542 25.796L53.5029 26.9353Z" fill="white"/>
<path d="M50.4009 21.5862V22.8674L51.0483 22.2268L50.4009 21.5862Z" fill="white"/>
<path d="M54.7764 20.0776L52.605 22.2269L54.6545 24.2556L56.8259 22.1063L54.7764 20.0776Z" fill="white"/>
<path d="M56.2255 17.1018H53.325L54.7763 18.5371L56.2255 17.1018Z" fill="white"/>
<path d="M61.8831 17.1018H59.5122L60.6976 18.2745L61.8831 17.1018Z" fill="white"/>
<path d="M57.6042 21.3361L59.9195 19.0448L57.9557 17.1018H57.7842L55.5547 19.3074L57.6042 21.3361Z" fill="white"/>
<path d="M57.6041 22.877L55.4324 25.0261L57.3598 26.9356H57.8272L59.7652 25.0165L57.6041 22.877Z" fill="white"/>
<path d="M71.6289 26.9353H73.9528L72.7909 25.7865L71.6289 26.9353Z" fill="white"/>
<path d="M65.5684 26.9353H67.8901L66.7303 25.7863L65.5684 26.9353Z" fill="white"/>
<path d="M69.7596 22.7872L67.5088 25.0159L69.4468 26.9353H70.0728L72.0129 25.0162L69.7596 22.7872Z" fill="white"/>
<path d="M63.6368 22.7247L61.3215 25.016L63.2617 26.9351H64.012L65.9521 25.0157L63.6368 22.7247Z" fill="white"/>
<path d="M59.3835 26.9353H61.7053L60.5433 25.7865L59.3835 26.9353Z" fill="white"/>
</svg>
