<svg width="137" height="80" viewBox="0 0 137 80" fill="none" xmlns="http://www.w3.org/2000/svg">
<path d="M128.686 48.3309C128.686 47.9763 128.686 47.6218 128.686 47.1492C128.218 47.2673 127.867 47.3855 127.515 47.5037C121.075 49.5125 114.518 51.4032 108.078 53.4121C96.6025 56.9571 85.1273 60.384 73.6521 63.9291C72.9495 64.1654 72.8324 64.5199 72.8324 65.1108C72.8324 69.2467 72.8324 73.3826 72.8324 77.5184C72.8324 77.7548 72.8324 77.9911 72.9495 78.3456C73.4179 78.2275 73.7691 78.1093 74.1204 77.9911C82.0828 75.5096 90.1623 73.1462 98.1247 70.6647C107.961 67.7105 117.796 64.6381 127.749 61.6839C128.569 61.4475 128.92 61.093 128.92 60.1477C128.686 56.13 128.686 52.2304 128.686 48.3309Z" fill="white"/>
<path d="M8.43068 38.6411C8.0794 39.8228 8.43068 40.4136 9.48453 40.5318C10.4213 40.7681 11.358 41.1227 12.4119 41.359C13.6999 41.5953 13.9341 42.1862 13.9341 43.486C13.9341 44.3132 14.0512 45.3767 14.6367 46.0857C15.5734 47.3856 20.3743 47.3856 21.311 45.9676C22.0136 44.904 22.5991 45.1404 23.4187 45.3767C35.8307 49.1581 48.1255 52.9395 60.5375 56.7209C61.7085 57.0754 62.9965 57.4299 64.1674 57.7844C64.7529 56.3664 63.9332 56.0119 62.9965 55.7755C49.5307 51.7578 36.2991 47.7401 22.9503 43.6042C22.5991 43.486 22.2478 43.2497 21.8965 43.1315C21.8965 43.0133 21.8965 42.777 21.8965 42.6588C23.3016 42.4225 24.8238 41.7135 26.1119 42.068C35.5965 44.7859 44.964 47.7401 54.3315 50.6943C57.6102 51.6396 60.8888 52.7032 64.1674 53.6485C64.4016 52.585 64.2845 51.9941 63.2307 51.6396C54.3315 49.0399 45.5495 46.2039 36.6503 43.6042C33.9572 42.777 31.3811 41.9498 28.6879 41.1227C28.6879 41.0045 28.6879 40.8863 28.6879 40.7682C29.6247 40.4136 30.5614 40.1773 31.4982 39.941C32.0837 39.8228 32.6691 39.8228 33.1375 39.941C41.5683 42.4225 49.882 45.0222 58.3127 47.6219C60.3033 48.2128 62.1768 48.8036 64.1674 49.3944C64.1674 48.8036 64.1674 48.3309 64.1674 47.7401C54.5657 44.7859 45.0811 41.9498 35.5965 38.9956C35.5965 38.8775 35.5965 38.6411 35.5965 38.5229C37.1187 38.2866 38.6409 37.4594 39.929 37.8139C46.135 39.4683 52.2238 41.4772 58.3127 43.3679C60.3033 43.9587 62.1768 44.5495 64.1674 45.1404C64.5187 43.9587 64.1674 43.486 63.1136 43.1315C56.6734 41.2408 50.2332 39.232 43.7931 37.2231C43.4418 37.1049 42.9734 36.9868 42.6221 36.7504C43.0905 36.3959 43.5589 36.1596 44.0273 36.0414C50.3503 34.0326 56.7905 32.1419 63.1136 30.2512C64.2845 29.8967 64.6358 29.424 64.1674 28.2423C63.8161 28.3605 63.3478 28.4786 62.9965 28.5968C55.7367 30.842 48.3597 32.969 41.0999 35.3324C38.9922 36.0414 37.47 35.0961 35.5965 34.5052C35.9478 34.2689 36.2991 34.0326 36.7674 33.9144C45.5495 31.1965 54.3315 28.4786 63.1136 25.8789C64.2845 25.5244 64.5187 25.0518 64.1674 23.8701C63.9332 23.8701 63.8161 23.9882 63.582 23.9882C53.629 27.0606 43.676 30.0148 33.723 33.2054C31.8495 33.7962 30.3273 32.7327 28.6879 32.26C28.805 32.1419 28.9221 32.0237 29.1563 32.0237C40.5144 28.5968 51.7555 25.0518 63.1136 21.6249C64.1674 21.2704 64.7529 20.7977 64.2845 19.616C63.9332 19.7342 63.6991 19.7342 63.3478 19.8523C51.0529 23.6337 38.6409 27.4151 26.3461 31.1965C24.7067 31.6692 23.4187 30.7238 22.1307 30.133C22.5991 29.7785 23.0674 29.6603 23.5358 29.424C36.7674 25.4063 50.1161 21.2704 63.3478 17.2526C64.4016 16.8981 64.6358 16.4255 64.2845 15.2438C50.2332 19.4978 36.2991 23.7519 22.2478 28.1241C21.7794 25.6426 21.1939 25.1699 18.735 25.1699C18.3837 25.1699 18.1495 25.1699 17.7982 25.1699C14.9879 25.1699 14.9879 25.1699 13.817 27.8878C12.0606 27.4151 10.3042 26.9424 8.54778 26.4698C8.19649 27.6515 8.43068 28.1241 9.60162 28.3605C10.6555 28.5968 11.5922 28.9513 12.6461 29.1876C14.2854 29.6603 14.5196 30.133 13.817 31.9055C12.0606 31.4328 10.3042 30.9602 8.54778 30.3693C8.19649 31.4328 8.43068 32.0237 9.60162 32.26C10.8897 32.4964 12.0606 32.969 13.3486 33.3235C13.9341 33.4417 14.1683 33.7962 14.1683 34.3871C14.1683 34.8597 14.1683 35.3324 14.1683 35.9232C12.1777 35.4506 10.4213 34.8597 8.66487 34.3871C8.31359 35.5687 8.54778 36.1596 9.71872 36.2778C10.6555 36.5141 11.7093 36.8686 12.6461 37.1049C14.4025 37.5776 14.5196 37.9321 13.9341 39.8228C11.9435 39.5865 10.1871 39.1138 8.43068 38.6411ZM35.9478 36.6323C33.8401 38.0503 31.1469 38.0503 28.5709 36.6323C31.1469 35.3324 33.6059 35.0961 35.9478 36.6323ZM29.1563 34.5052C26.6973 35.8051 24.3555 36.0414 21.8965 34.6234C23.5358 33.0872 26.3461 33.0872 29.1563 34.5052ZM29.0392 38.7593C27.517 40.1773 24.3555 40.2955 21.8965 38.8775C24.3555 37.2231 26.6973 37.4594 29.0392 38.7593Z" fill="white"/>
<path d="M113.932 30.9602C113.113 31.1965 112.059 31.4328 111.239 31.1965C103.043 28.8331 94.9632 26.2334 86.7666 23.7519C86.2982 23.6337 85.9469 23.5156 85.4786 23.3974C85.3615 23.3974 85.2444 23.3974 85.1273 23.2792L82.4341 22.4521C79.2726 21.3885 76.111 20.4432 72.8324 19.3797C72.4811 20.4432 72.7153 21.034 73.8863 21.3885C76.4623 22.0975 79.0384 22.9247 81.6145 23.7519C81.9657 23.8701 82.317 23.9882 82.6683 23.9882L87.1179 25.4063C87.3521 25.5244 87.7033 25.5244 87.9375 25.6426C93.9093 27.4151 99.764 29.3058 105.736 31.0783C106.79 31.4328 107.844 31.7874 108.897 32.0237C107.258 32.6145 105.853 33.678 103.862 33.0872C97.5392 31.0783 91.0991 29.1876 84.776 27.297L81.2632 26.2334C81.029 26.1153 80.6777 25.9971 80.3264 25.8789C79.6239 25.7608 79.0384 25.4063 78.3358 25.2881C76.5794 24.6972 74.7059 24.2246 72.9495 23.6337C72.5982 24.8154 72.8324 25.2881 74.0034 25.6426C75.7598 26.1153 77.5162 26.7061 79.0384 27.1788L81.3803 27.8878H81.4974L86.6495 29.424C91.4504 30.9602 96.2512 32.3782 100.935 33.7962C101.286 33.9144 101.638 34.0326 102.223 34.2689C99.9982 34.9779 98.2418 35.8051 96.1341 34.9779C93.558 33.9144 90.7478 33.2054 88.0546 32.4964C86.2982 32.0237 84.4247 31.551 82.6683 30.9602L72.9495 27.6515C72.7153 28.5968 72.7153 29.3058 73.3008 29.6603C73.4179 29.7785 73.6521 29.7785 73.8863 29.8967C73.8863 29.8967 73.8863 29.8967 74.0034 29.8967L81.6145 32.26C85.7127 33.5599 89.811 34.7416 93.7922 36.0414C94.2606 36.1596 94.6119 36.2778 94.9632 36.5141C94.4948 36.8686 94.1435 36.9868 93.7922 37.1049C87.1179 39.1138 80.5606 41.2408 73.8863 43.1315C72.8324 43.486 72.5982 43.9587 72.8324 45.1404C73.3008 45.0222 73.8863 44.904 74.3546 44.6677C82.0828 42.3043 89.6939 39.941 97.4221 37.6958C99.0615 37.2231 100.467 38.2866 101.872 38.8775C92.1529 41.8317 82.4341 44.7859 72.8324 47.7401C72.8324 48.3309 72.8324 48.8036 72.8324 49.3944C73.3008 49.2763 73.7692 49.1581 74.1204 49.0399C83.9563 46.0857 93.9093 43.1315 103.745 39.941C105.736 39.3501 107.141 40.2955 108.897 40.7682C108.546 41.0045 108.312 41.1227 107.961 41.2408C96.6025 44.6677 85.3615 48.0946 74.0034 51.6396C72.5982 52.1123 72.4811 52.1123 72.9495 53.6485C74.1204 53.294 75.2914 52.9395 76.3452 52.585C88.0546 49.0399 99.6469 45.4949 111.356 41.9498C111.708 41.8317 112.176 41.7135 112.527 41.8317C113.113 42.068 114.284 41.8317 114.284 43.0134C114.284 44.0769 113.23 43.9587 112.644 44.0769C99.764 48.0946 86.7666 51.9941 73.7692 55.8937C72.5982 56.2482 72.4811 56.8391 72.7153 57.9026C76.2281 56.8391 79.6239 55.7755 83.1367 54.712C93.2068 51.6396 103.277 48.5673 113.347 45.4949C113.698 45.3767 114.401 45.2586 114.518 45.4949C115.455 46.9129 116.743 46.6766 118.031 46.6766C121.309 46.7947 122.48 46.0857 122.129 42.777C122.012 42.068 122.363 41.8317 122.949 41.5953C124.471 41.2408 125.876 40.65 127.281 40.4136C128.452 40.1773 128.686 39.5865 128.335 38.523C126.344 39.1138 124.237 39.7046 122.246 40.1773C121.778 38.0503 121.895 37.9321 123.651 37.4594C124.822 37.1049 126.11 36.6323 127.398 36.3959C128.569 36.1596 128.686 35.5687 128.335 34.5052C126.344 35.0961 124.237 35.5687 122.246 36.1596C121.895 34.0326 121.895 33.9144 123.651 33.4417C124.822 33.0872 125.993 32.7327 127.281 32.4964C128.452 32.26 128.803 31.6692 128.335 30.6057C126.344 31.1965 124.237 31.6692 122.246 32.26C121.778 30.133 121.895 30.0148 123.651 29.5422C124.939 29.1876 126.11 28.8331 127.398 28.4786C128.452 28.2423 128.803 27.6515 128.452 26.5879C126.461 27.1788 124.354 27.6515 122.363 28.2423C121.661 25.5244 121.309 25.2881 118.616 25.2881C118.382 25.2881 118.265 25.2881 118.031 25.2881C116.04 25.1699 114.401 25.4063 114.05 27.8878C105.853 25.4063 97.7734 22.9247 89.6939 20.4432L87.235 19.616C82.317 18.0798 77.5162 16.6618 72.5982 15.1256C72.5982 16.071 72.364 16.6618 73.4179 17.0163C77.5162 18.198 81.6145 19.4978 85.7127 20.6795L87.4692 21.2704C87.7033 21.3885 88.0546 21.5067 88.4059 21.6249L89.5769 21.9794C95.4316 23.7519 101.286 25.5244 107.024 27.297C109.132 28.006 111.356 28.5968 113.464 29.3058C113.698 29.424 114.05 29.6603 114.05 30.0148C114.401 30.3693 114.167 30.9602 113.932 30.9602ZM101.52 36.7504C103.628 35.3324 106.087 35.3324 108.897 36.7504C106.321 38.1684 103.979 38.0503 101.52 36.7504ZM113.581 39.5865C111.708 40.5318 110.185 39.232 108.429 38.7593C110.185 38.2866 111.708 36.9868 113.581 37.9321C113.932 38.0503 114.284 38.523 114.284 38.7593C114.284 39.1138 113.932 39.4683 113.581 39.5865ZM113.581 35.3324C112.41 36.0414 111.239 35.5687 110.185 35.2142C109.6 34.9779 109.014 34.8597 108.429 34.6234C108.429 34.5052 108.429 34.3871 108.429 34.2689C110.185 33.9144 111.708 32.6145 113.581 33.5599C113.932 33.678 114.284 34.1507 114.284 34.3871C114.284 34.8597 113.932 35.2142 113.581 35.3324Z" fill="white"/>
<path d="M5.97175 22.4521C5.73757 21.1522 4.80081 20.325 3.39569 20.4432C1.87346 20.5614 1.1709 21.5067 1.1709 23.3974C1.1709 35.5688 1.1709 47.7401 1.1709 59.9114C1.1709 60.3841 1.1709 60.7386 1.28799 61.2113C2.92731 61.2113 4.44953 61.2113 6.08885 61.2113C6.08885 60.7386 6.08885 60.266 6.08885 59.9114C6.08885 47.9764 6.08885 36.0414 6.08885 24.1064C5.97175 23.5156 5.97175 23.0429 5.97175 22.4521Z" fill="white"/>
<path d="M135.829 22.452C135.595 21.1521 134.658 20.4431 133.37 20.4431C132.082 20.4431 131.262 21.2703 131.028 22.5701C130.911 23.0428 130.911 23.5155 130.911 23.9882C130.911 36.0413 130.911 47.9764 130.911 60.0295C130.911 60.384 130.911 60.8567 131.028 61.2112C132.668 61.2112 134.19 61.2112 135.829 61.2112C135.829 60.6204 135.946 60.1477 135.946 59.675C135.946 47.8582 135.946 35.9232 135.946 24.1063C135.946 23.5155 135.946 23.0428 135.829 22.452Z" fill="white"/>
<path d="M68.5 38.1685C67.212 38.1685 66.3923 38.9956 66.1581 40.2955C66.041 40.7682 66.041 41.2408 66.041 41.7135C66.041 53.7667 66.041 65.7017 66.041 77.7549C66.041 78.1094 66.041 78.5821 66.1581 78.9366C67.7974 78.9366 69.3196 78.9366 70.959 78.9366C70.959 78.3457 71.0761 77.873 71.0761 77.4004C71.0761 65.5835 71.0761 53.6485 71.0761 41.8317C71.0761 41.2408 71.0761 40.7682 71.0761 40.1773C70.7248 38.9956 69.788 38.1685 68.5 38.1685Z" fill="white"/>
<path d="M66.1581 30.7238C67.7974 30.7238 69.3196 30.7238 70.959 30.7238C70.959 30.4875 70.959 30.0148 70.959 29.6603C70.959 25.8789 70.959 22.0975 70.959 18.4343C70.959 13.5894 70.959 8.7445 70.959 3.89959C70.959 2.24524 70.0222 1.06355 68.5 1.18172C67.0949 1.18172 66.041 2.24524 66.041 3.78142C66.041 12.6441 66.041 21.3885 66.041 30.2511C66.041 30.3693 66.1581 30.6057 66.1581 30.7238Z" fill="white"/>
<path d="M63.1136 63.8109C46.2521 58.7297 29.2735 53.5303 12.4119 48.3309C11.0068 47.9763 9.71876 47.5037 8.19653 47.1492C8.19653 51.5214 8.19653 55.6573 8.19653 59.9114C8.19653 61.093 8.54782 61.5657 9.60166 61.802C18.3837 64.4018 27.0487 67.1196 35.8307 69.7193C42.388 71.7282 48.9453 73.7371 55.5025 75.7459C58.3128 76.5731 61.2401 77.5185 64.2846 78.3456C64.2846 73.8552 64.2846 69.6012 64.2846 65.2289C64.2846 64.4018 63.9333 64.0472 63.1136 63.8109Z" fill="white"/>
</svg>
