<svg width="14" height="25" viewBox="0 0 14 25" fill="none" xmlns="http://www.w3.org/2000/svg">
<path d="M4.22827 9.45109C4.22827 8.1064 4.2232 7.02352 4.22916 5.94073C4.16669 5.20866 4.2645 4.47234 4.51657 3.77706C4.76864 3.08178 5.16965 2.44224 5.69492 1.89777C6.22019 1.35331 6.85862 0.915436 7.57094 0.611088C8.28327 0.30674 9.05441 0.142351 9.83696 0.128034C13.8067 -0.294481 14.2656 0.150575 13.8968 4.21352C12.5622 4.58252 10.5657 3.7637 9.86481 5.43331C9.51756 6.71952 9.34318 8.04144 9.34574 9.36827H13.9521L13.2307 14.0456H9.51158V25H4.24998V14.0969H0V9.45109H4.22827Z" fill="white"/>
</svg>
