<svg width="25" height="26" viewBox="0 0 25 26" fill="none" xmlns="http://www.w3.org/2000/svg">
<path d="M24.1731 7.6424C24.1866 5.90291 23.5101 4.22897 22.2919 2.98726C21.0736 1.74555 19.4129 1.03729 17.6734 1.01763C13.9329 0.930739 10.1921 0.932983 6.45108 1.02436C4.75575 1.05503 3.13918 1.74547 1.94477 2.94899C0.750369 4.15251 0.0722489 5.77429 0.0544703 7.4698C-0.0195069 11.2067 -0.0181316 14.9449 0.0585958 18.6842C0.0962117 20.3989 0.800933 22.0313 2.02302 23.2345C3.2451 24.4378 4.88821 25.1172 6.60322 25.1282C8.40797 25.1656 10.2126 25.1348 12.0174 25.1348C13.8221 25.1348 15.6268 25.161 17.4315 25.1379C18.314 25.1469 19.1896 24.9808 20.0075 24.6493C20.8255 24.3178 21.5696 23.8275 22.1969 23.2067C22.8243 22.5858 23.3223 21.8468 23.6622 21.0323C24.0022 20.2178 24.1774 19.3441 24.1776 18.4615C24.2228 14.8555 24.2213 11.2491 24.1731 7.6424ZM17.3198 22.9296C13.846 22.9763 10.3709 22.9765 6.89444 22.9301C6.27498 22.9507 5.65793 22.8434 5.08183 22.6148C4.50574 22.3862 3.98298 22.0412 3.54624 21.6014C3.10949 21.1616 2.76815 20.6365 2.54353 20.0588C2.31891 19.4812 2.21585 18.8634 2.24078 18.2441C2.2084 14.815 2.20727 11.3857 2.23741 7.95635C2.20494 7.31539 2.309 6.67484 2.5427 6.07713C2.77641 5.47941 3.13443 4.93816 3.59306 4.48922C4.05168 4.04028 4.60045 3.6939 5.20302 3.473C5.80559 3.25211 6.44821 3.16174 7.08834 3.20789C8.75745 3.19434 10.4305 3.20495 12.1037 3.20495C13.8633 3.20655 15.6229 3.18137 17.3821 3.21269C17.9792 3.19841 18.5731 3.30364 19.129 3.5222C19.6848 3.74076 20.1914 4.06824 20.6188 4.48539C21.0462 4.90253 21.386 5.40093 21.618 5.95127C21.8501 6.50161 21.9698 7.09279 21.97 7.69005C22.0399 11.2496 22.0399 14.8106 21.97 18.3729C21.9815 18.9824 21.8684 19.5877 21.6375 20.1519C21.4067 20.716 21.0631 21.2271 20.6278 21.6538C20.1924 22.0804 19.6745 22.4136 19.1058 22.633C18.5371 22.8524 17.9289 22.9533 17.3198 22.9296Z" fill="white"/>
<path d="M12.2023 6.83672C10.5485 6.81055 8.95211 7.44241 7.76421 8.5933C6.57632 9.74418 5.89426 11.3198 5.86809 12.9736C5.84192 14.6274 6.47378 16.2238 7.62467 17.4117C8.77556 18.5996 10.3512 19.2817 12.005 19.3078C12.8238 19.3208 13.6372 19.1723 14.3987 18.8709C15.1602 18.5695 15.8549 18.1211 16.4431 17.5512C17.0313 16.9814 17.5014 16.3012 17.8268 15.5497C18.1521 14.7981 18.3262 13.9898 18.3392 13.1709C18.3522 12.3521 18.2037 11.5387 17.9023 10.7772C17.6009 10.0157 17.1525 9.32103 16.5826 8.73284C16.0128 8.14466 15.3326 7.67447 14.581 7.34913C13.8295 7.0238 13.0212 6.84968 12.2023 6.83672ZM12.1242 17.0864C11.3283 17.0891 10.5494 16.8557 9.88603 16.4159C9.22267 15.976 8.70459 15.3494 8.39725 14.6152C8.0899 13.881 8.0071 13.0721 8.1593 12.2909C8.3115 11.5096 8.69187 10.791 9.25235 10.2259C9.81282 9.66073 10.5282 9.27441 11.3082 9.11573C12.0882 8.95706 12.8977 9.03315 13.6344 9.33439C14.3711 9.63563 15.002 10.1485 15.4474 10.8082C15.8927 11.4679 16.1325 12.2448 16.1365 13.0407C16.1295 14.1058 15.7056 15.1257 14.9556 15.882C14.2056 16.6383 13.1892 17.0706 12.1242 17.0864Z" fill="white"/>
<path d="M18.6566 8.07028C19.5713 8.07028 20.3128 7.32876 20.3128 6.41405C20.3128 5.49933 19.5713 4.75781 18.6566 4.75781C17.7419 4.75781 17.0004 5.49933 17.0004 6.41405C17.0004 7.32876 17.7419 8.07028 18.6566 8.07028Z" fill="white"/>
</svg>
