<svg width="24" height="24" viewBox="0 0 24 24" fill="none" xmlns="http://www.w3.org/2000/svg">
<path d="M8.73047 8.0031H13.3358L13.4383 9.81871C14.009 9.05837 14.757 8.44907 15.617 8.04385C16.477 7.63863 17.4231 7.44978 18.3728 7.49373C19.0155 7.44135 19.6622 7.51634 20.2759 7.71441C20.8896 7.91249 21.4582 8.22974 21.949 8.64799C22.4398 9.06624 22.8432 9.57725 23.1361 10.1517C23.4291 10.7262 23.6057 11.3529 23.656 11.9958C23.8881 13.9129 23.9948 15.8431 23.9753 17.7741C24.0238 19.654 23.9858 21.536 23.9858 23.4984H18.9378C18.9378 22.2677 18.9378 21.0124 18.9378 19.7571C18.937 18.1299 18.9583 16.5021 18.9284 14.8753C18.894 13.0051 18.0768 11.9355 16.6696 11.8367C16.2933 11.8037 15.9143 11.8479 15.5558 11.9666C15.1973 12.0853 14.8667 12.2759 14.5845 12.5269C14.3022 12.7778 14.0742 13.0837 13.9143 13.4259C13.7545 13.7681 13.6662 14.1393 13.6549 14.5168C13.432 16.6515 13.4547 18.8124 13.388 20.9624C13.3627 21.7867 13.3839 22.6126 13.3839 23.5064H8.73047V8.0031Z" fill="white"/>
<path d="M0.997681 7.99609H5.60301V23.4779H0.997681V7.99609Z" fill="white"/>
<path d="M3.29691 5.8997C2.92486 5.90456 2.55553 5.83572 2.21021 5.69714C1.86489 5.55856 1.55043 5.35299 1.28495 5.09228C1.01948 4.83157 0.808239 4.52088 0.663424 4.17814C0.518609 3.83539 0.443082 3.46736 0.441198 3.09528C0.439315 2.7232 0.511112 2.35443 0.652449 2.01023C0.793786 1.66604 1.00187 1.35323 1.26469 1.08984C1.52751 0.82646 1.83988 0.617715 2.18378 0.475646C2.52767 0.333577 2.89629 0.260996 3.26837 0.262088C3.64116 0.256054 4.01144 0.324029 4.35778 0.462078C4.70412 0.600127 5.01963 0.805506 5.28605 1.06633C5.55248 1.32715 5.76451 1.63823 5.90989 1.98155C6.05526 2.32488 6.13109 2.69363 6.13298 3.06647C6.13487 3.4393 6.06278 3.8088 5.92088 4.15358C5.77899 4.49836 5.57012 4.81157 5.30635 5.07508C5.04258 5.33858 4.72916 5.54715 4.38424 5.68869C4.03932 5.83024 3.66974 5.90196 3.29691 5.8997Z" fill="white"/>
</svg>
