<svg width="54" height="99" viewBox="0 0 54 99" fill="none" xmlns="http://www.w3.org/2000/svg">
<path d="M29.1618 50.0322C26.3643 50.3303 25.9404 47.818 25.2198 45.7742C25.2198 62.04 25.2198 73.6219 25.2198 89.1638C32.4679 89.1638 39.6735 89.1638 46.9216 89.1638C46.9216 73.1961 46.9216 62.04 46.9216 46.2C46.7096 46.1148 46.5401 46.0297 46.3282 45.9445C46.2858 48.2438 45.8195 50.16 43.1492 50.0322C40.7332 49.9045 40.606 48.0309 40.4789 46.2426C37.4271 46.2426 34.5448 46.2426 31.5778 46.2426C31.5778 48.2438 31.2811 49.8193 29.1618 50.0322Z" fill="white"/>
<path d="M46.7097 94.316C39.504 94.316 32.5103 94.316 25.3894 94.316C28.526 99.3831 43.5307 99.3831 46.7097 94.316Z" fill="white"/>
<path d="M25.0503 90.6116C25.0503 91.3354 25.0503 91.9742 25.0503 92.7406C32.5103 92.7406 39.7583 92.7406 47.1335 92.7406C47.0911 91.9316 47.0487 91.2929 47.0063 90.6116C39.5888 90.6116 32.3407 90.6116 25.0503 90.6116Z" fill="white"/>
<path d="M39.0801 9.49543V7.83479H53.1523V0.851562H7.79911H0.974937H0.847778V65.7445L7.75673 57.2283V30.1045L29.9671 7.79221H33.7395V9.45285C33.7395 10.9432 34.6296 12.2206 35.774 12.4761V13.6258C34.6296 13.8812 33.7395 15.1161 33.7395 16.649V18.7354C33.7395 20.2258 34.6296 21.5032 35.774 21.7587C35.6468 21.8012 35.6045 21.8438 35.6045 21.8438L32.7222 27.0387C32.6374 27.2941 32.5526 27.507 32.4679 27.7199C30.6453 32.4464 28.7379 37.0451 26.7457 41.8567C26.3643 41.8993 25.7709 41.9845 25.0927 42.1122C25.0927 42.8787 25.0927 43.5599 25.0927 44.1987V44.9225H26.5762V46.1148C26.5762 47.1367 27.3815 47.9458 28.3988 47.9458H28.7803C29.7975 47.9458 30.6029 47.1367 30.6029 46.1148V44.9225H41.2418V46.1148C41.2418 47.1367 42.0471 47.9458 43.0644 47.9458H43.4459C44.4632 47.9458 45.2685 47.1367 45.2685 46.1148V44.9225H47.1335V42.1122H46.6672C46.0738 41.9845 45.5652 41.8567 45.2261 41.7716C44.4208 39.7277 43.785 37.8116 42.9373 36.0658C40.7332 31.467 39.5464 26.4 37.0032 21.8864C36.9608 21.8438 36.9184 21.8438 36.876 21.8012C38.1052 21.6309 39.0377 20.3109 39.0377 18.778V16.6916C39.0377 15.2012 38.1476 13.9664 37.0032 13.6683V12.4761C38.19 12.2206 39.0801 10.9858 39.0801 9.49543ZM28.5683 46.9664C28.1869 46.9664 27.8902 46.6683 27.8902 46.2851C27.8902 45.9019 28.1869 45.6038 28.5683 45.6038C28.9498 45.6038 29.2465 45.9019 29.2465 46.2851C29.2465 46.6683 28.9498 46.9664 28.5683 46.9664ZM43.2763 46.9664C42.8949 46.9664 42.5982 46.6683 42.5982 46.2851C42.5982 45.9019 42.8949 45.6038 43.2763 45.6038C43.6578 45.6038 43.9545 45.9019 43.9545 46.2851C43.9545 46.6683 43.6578 46.9664 43.2763 46.9664ZM7.79911 24.2283V7.83479H24.1178L7.79911 24.2283ZM35.011 9.49543V7.83479H37.7661V9.49543C37.7661 10.2193 37.4694 10.858 37.0032 11.1561V9.66576C37.0032 9.32511 36.7065 9.02705 36.3674 9.02705C36.0283 9.02705 35.7316 9.32511 35.7316 9.66576V11.1561C35.3501 10.9006 35.011 10.2193 35.011 9.49543ZM37.8933 36.747C37.6814 36.7045 37.4271 35.938 37.4271 35.4696C37.2575 32.5741 37.1304 29.6787 37.4271 26.698C38.953 31.6374 40.4365 36.5767 42.0471 41.7716C37.9357 41.7716 34.2481 41.7716 30.1366 41.7716C31.7049 36.6193 33.1884 31.6799 34.7143 26.7406C34.8839 26.7406 35.0534 26.7832 35.1806 26.7832C35.011 29.849 34.8415 32.9574 34.672 36.0232C34.672 36.2787 34.46 36.7045 34.2905 36.7045C32.0016 36.9599 32.4255 38.9612 31.6625 40.6645C34.7143 40.6645 37.4271 40.6645 40.3517 40.6645C39.7159 39.1741 40.3093 37.1303 37.8933 36.747ZM37.8085 16.6916V18.778C37.8085 19.7574 37.2575 20.5664 36.6217 20.5664H36.2402C35.6045 20.5664 35.0534 19.7574 35.0534 18.778V16.6916C35.0534 15.9677 35.3925 15.2864 35.8164 15.0309V16.1806C35.8164 16.5212 36.1131 16.8193 36.4522 16.8193C36.7913 16.8193 37.088 16.5212 37.088 16.1806V15.0309C37.4694 15.329 37.8085 15.9677 37.8085 16.6916Z" fill="white"/>
</svg>
