<svg width="29" height="20" viewBox="0 0 29 20" fill="none" xmlns="http://www.w3.org/2000/svg">
<path d="M14.5606 0.0299332C17.7694 0.0292711 20.9805 -0.0451267 24.1866 0.0497945C27.4979 0.14786 28.7548 1.15219 28.9038 4.34707C29.0924 8.39119 28.9733 12.4572 28.8064 16.5059C28.7246 18.4882 27.2985 19.6203 25.011 19.7261C21.411 19.8926 17.8055 19.9952 14.2022 19.9999C10.863 20.0041 7.52016 19.9058 4.18467 19.7376C1.47025 19.6008 0.19867 18.4065 0.112878 15.7777C-0.00933496 12.0275 -0.0529882 8.26664 0.0874764 4.51854C0.208175 1.29809 1.4647 0.161184 4.8028 0.0534357C8.05224 -0.0514989 11.3079 0.0305952 14.5606 0.0299332ZM11.5347 14.3676L19.1956 9.92722L11.6089 5.54239C11.5758 6.20932 11.5383 6.62608 11.5373 7.04293C11.5317 9.39957 11.5347 11.7563 11.5347 14.3676Z" fill="white"/>
</svg>
